Coordinates
version=1
nRows=21
nColumns=22
inDegrees=yes

Units are S.I. units (second, meters, Newtons, ...)
If the header above contains a line with 'inDegrees', this indicates whether rotational values are in degrees (yes) or radians (no).

endheader
time	pelvis_tilt	pelvis_list	pelvis_rotation	pelvis_tx	pelvis_ty	pelvis_tz	hip_flexion_r	hip_adduction_r	hip_rotation_r	knee_angle_r	ankle_angle_r	subtalar_angle_r	hip_flexion_l	hip_adduction_l	hip_rotation_l	knee_angle_l	ankle_angle_l	subtalar_angle_l	lumbar_extension	lumbar_bending	lumbar_rotation
      4.06000000	      4.03008525	      0.42147920	     -2.98419045	      0.70188165	      0.91359075	      0.00774785	     16.77016220	      0.55176140	     -4.36639455	    -10.68067458	     -6.00089883	      4.57482565	     -9.25830955	      1.23272264	    -12.94627190	    -22.62285526	     13.09831425	      1.19130672	     -7.22718195	     -4.78767518	     -4.89770397
      4.07000000	      4.03912682	      0.34701818	     -2.77310190	      0.71033989	      0.91305846	      0.00928409	     16.52820588	      0.76517855	     -4.06934622	    -11.30080755	     -6.32461666	      3.73018281	     -9.45823550	      0.94233960	    -12.56541512	    -23.34295501	     12.92299315	      1.56684562	     -7.07109231	     -4.73821492	     -4.94753129
      4.08000000	      4.05211275	      0.20410420	     -2.55547345	      0.71879436	      0.91273456	      0.01090131	     16.25306037	      1.05282098	     -3.87645844	    -11.85099502	     -6.76066056	      2.72591903	     -9.58022513	      0.56394719	    -12.15356589	    -24.20184057	     12.61513428	      1.95284217	     -6.92090200	     -4.61539943	     -4.97857268
      4.09000000	      4.07683839	     -0.00506220	     -2.32253853	      0.72718750	      0.91263509	      0.01256287	     15.95158333	      1.40078589	     -3.82306357	    -12.34653168	     -7.24978036	      1.67981700	     -9.59172999	      0.09183583	    -11.73703224	    -25.26891138	     12.25243497	      2.33189722	     -6.79656934	     -4.42014380	     -5.01558889
      4.10000000	      4.10941961	     -0.25788340	     -2.08642141	      0.73552232	      0.91278956	      0.01423971	     15.63792881	      1.77861663	     -3.90094601	    -12.81554105	     -7.69028266	      0.67539419	     -9.48752080	     -0.43829949	    -11.29973186	    -26.52853605	     11.70865943	      2.69130890	     -6.68959812	     -4.17523010	     -5.03095808
      4.11000000	      4.16061995	     -0.52852843	     -1.85634657	      0.74375253	      0.91319673	      0.01591602	     15.31956494	      2.15626699	     -4.06882676	    -13.30768061	     -7.95610195	     -0.22744095	     -9.26453275	     -0.99675542	    -10.85893319	    -27.99324644	     10.99166754	      3.04069000	     -6.61625788	     -3.90873788	     -5.04591871
      4.12000000	      4.22128863	     -0.78977296	     -1.64459605	      0.75187269	      0.91382698	      0.01757325	     14.99070041	      2.50668475	     -4.28342714	    -13.80215741	     -7.98717456	     -1.02389302	     -8.91417469	     -1.54822735	    -10.41574618	    -29.65070695	     10.07232277	      3.40916686	     -6.56272364	     -3.65240555	     -5.00539449
      4.13000000	      4.30699466	     -1.07666463	     -1.41093645	      0.75982078	      0.91468937	      0.01913841	     14.61221773	      2.85488580	     -4.56898238	    -14.25110481	     -7.98570818	     -1.35174490	     -8.43372557	     -2.14240874	     -9.96562376	    -31.52518709	      9.02631460	      3.62762888	     -6.56034951	     -3.35828979	     -4.98181604
      4.14000000	      4.38648401	     -1.33213619	     -1.18827051	      0.76759452	      0.91567486	      0.02066762	     14.21141879	      3.16140753	     -4.84407415	    -14.64444544	     -7.80066284	     -1.58312092	     -7.80941005	     -2.71368885	     -9.53139923	    -33.57147330	      7.82824718	      3.90170345	     -6.56415253	     -3.10121610	     -4.93020589
      4.15000000	      4.47948986	     -1.58625505	     -0.98289275	      0.77518311	      0.91679007	      0.02215385	     13.76663922	      3.46177932	     -5.10333589	    -14.97431260	     -7.55049067	     -1.62328724	     -7.09759866	     -3.27910087	     -9.08648093	    -35.72130478	      6.50408041	      4.12759141	     -6.59696511	     -2.84201383	     -4.83663564
      4.16000000	      4.57024243	     -1.82183737	     -0.78627855	      0.78256847	      0.91795789	      0.02359973	     13.28831093	      3.74445564	     -5.33082855	    -15.22216511	     -7.24915983	     -1.55492274	     -6.29272564	     -3.82643140	     -8.64490724	    -37.95166636	      5.13540635	      4.34647411	     -6.64264524	     -2.60655981	     -4.71317023
      4.17000000	      4.64410604	     -2.02638824	     -0.60363813	      0.78972544	      0.91909597	      0.02501273	     12.79673636	      4.00348813	     -5.50101744	    -15.38714607	     -6.89365493	     -1.42590341	     -5.39469311	     -4.34417681	     -8.22744439	    -40.23509157	      3.79738799	      4.58624443	     -6.68478060	     -2.40602752	     -4.58600122
      4.18000000	      4.72019347	     -2.21915862	     -0.43900774	      0.79667775	      0.92020988	      0.02640768	     12.28218975	      4.26074694	     -5.65657010	    -15.48856980	     -6.54469426	     -1.30634968	     -4.45998260	     -4.84058808	     -7.81521135	    -42.50762071	      2.53187710	      4.80067261	     -6.74112970	     -2.22629403	     -4.41092845
      4.19000000	      4.78566673	     -2.38570873	     -0.29623800	      0.80342042	      0.92123769	      0.02778638	     11.76478518	      4.50371499	     -5.78114081	    -15.53379796	     -6.17984796	     -1.22995914	     -3.49037269	     -5.30382331	     -7.43793435	    -44.74464569	      1.40119156	      5.01061361	     -6.79762762	     -2.08165788	     -4.20240797
      4.20000000	      4.82528319	     -2.52360326	     -0.16957872	      0.80995605	      0.92213163	      0.02916780	     11.26556137	      4.73206896	     -5.87240475	    -15.53262974	     -5.79622437	     -1.21486652	     -2.48026008	     -5.73664558	     -7.10571499	    -46.91926471	      0.45281739	      5.23373484	     -6.83310281	     -1.97989712	     -3.98528525
      4.21000000	      4.85192184	     -2.62913041	     -0.06859169	      0.81629581	      0.92290851	      0.03054010	     10.77486817	      4.94031768	     -5.92298260	    -15.49292054	     -5.38339459	     -1.27467790	     -1.46777633	     -6.12482634	     -6.82096942	    -48.98279181	     -0.31128062	      5.45754871	     -6.86279829	     -1.92217577	     -3.74610596
      4.22000000	      4.90154158	     -2.72868851	      0.01055856	      0.82245580	      0.92363162	      0.03192157	     10.26230293	      5.15071079	     -5.99458893	    -15.43042596	     -5.01263862	     -1.38038490	     -0.50383098	     -6.51242161	     -6.61811808	    -50.90441674	     -0.90875645	      5.64457661	     -6.92820911	     -1.88067522	     -3.47723173
      4.23000000	      4.91959104	     -2.79321239	      0.07646360	      0.82842906	      0.92423769	      0.03328176	      9.77974264	      5.33325240	     -6.02240791	    -15.33457160	     -4.60346471	     -1.56361734	      0.46360231	     -6.85171613	     -6.45170830	    -52.65117245	     -1.29894479	      5.83566069	     -6.96244077	     -1.88649354	     -3.21217798
      4.24000000	      4.98328353	     -2.85925869	      0.11286168	      0.83421926	      0.92485985	      0.03464253	      9.26314735	      5.52019257	     -6.06396554	    -15.24150429	     -4.24494134	     -1.73269832	      1.33540908	     -7.19455319	     -6.36964761	    -54.19332506	     -1.51760030	      5.95459561	     -7.06126828	     -1.89484451	     -2.91999431
      4.25000000	      5.03931603	     -2.89725645	      0.12891836	      0.83982525	      0.92545300	      0.03596992	      8.76281882	      5.67915529	     -6.07503438	    -15.13783830	     -3.89125618	     -1.93639114	      2.16565159	     -7.49086788	     -6.32276845	    -55.50839805	     -1.55375276	      6.02284967	     -7.15743900	     -1.93634133	     -2.62249601
      4.26000000	      5.13373903	     -2.87746240	      0.11652414	      0.84529218	      0.92613378	      0.03725391	      8.21565980	      5.77605522	     -6.03447530	    -15.00875472	     -3.51205625	     -2.04785522	      2.88078145	     -7.69898326	     -6.31379916	    -56.55005924	     -1.47713260	      6.03886028	     -7.29858299	     -2.04474488	     -2.32288143
